<svg width="262" height="50" viewBox="0 0 262 50" fill="none" xmlns="http://www.w3.org/2000/svg">
<path d="M145.119 26.905V23.485H132.889V20.035C132.889 18.625 134.429 17.915 135.659 17.905H146.079L147.939 14.475H135.659C132.899 14.475 129.489 16.095 129.459 19.245V30.765C129.459 33.905 132.899 35.505 135.659 35.525H147.929L146.109 32.105H135.659C134.429 32.105 132.889 31.365 132.889 29.975V26.905H145.119ZM118.569 35.525V17.905H126.839V14.475H106.989V17.905H115.149V35.525H118.569ZM161.569 35.525V17.905H169.839V14.475H149.939V17.905H158.099V35.525H161.569ZM103.849 17.905V14.475H90.849C88.279 14.475 84.659 15.575 84.659 18.705V22.705C84.7375 23.2219 84.9705 23.7029 85.3275 24.0849C85.6844 24.4668 86.1486 24.7318 86.659 24.845L100.659 28.425C100.969 28.505 101.319 28.755 101.319 29.105V30.005C101.319 31.395 99.859 32.135 98.619 32.135H84.619V35.555H98.619C101.329 35.555 104.619 34.105 104.619 30.985V27.425C104.565 26.9126 104.353 26.4297 104.013 26.0429C103.672 25.656 103.22 25.3842 102.719 25.265L88.719 21.705C88.5498 21.6738 88.3952 21.5888 88.2781 21.4627C88.161 21.3366 88.0877 21.1761 88.069 21.005V19.845C88.069 18.445 89.719 17.915 90.869 17.915L103.849 17.905ZM79.179 26.905V23.485H66.949V20.035C66.949 18.625 68.489 17.915 69.719 17.905H80.139L81.999 14.475H69.719C66.959 14.475 63.549 16.095 63.519 19.245V30.765C63.519 33.905 66.959 35.505 69.719 35.525H81.989L80.169 32.105H69.719C68.489 32.105 66.949 31.365 66.949 29.975V26.905H79.179Z" fill="#3D372F"/>
<path d="M200.479 23.155H201.479L201.609 21.845H205.419V23.155H206.419L206.589 20.775H205.809V16.405H201.599V17.075C201.669 18.3381 201.461 19.6012 200.989 20.775H200.399V23.155H200.479ZM202.229 33.585H203.489V29.215H205.239V28.145H200.479V29.215H202.229V33.585ZM208.729 33.715C209.151 33.7292 209.57 33.6464 209.955 33.473C210.34 33.2997 210.68 33.0403 210.949 32.715L210.219 32.065C210.032 32.2691 209.805 32.4323 209.552 32.5442C209.299 32.656 209.026 32.7142 208.749 32.715C208.36 32.7294 207.981 32.5944 207.689 32.3377C207.397 32.081 207.215 31.7222 207.179 31.335H211.179C211.179 31.265 211.179 31.065 211.179 30.985C211.221 30.617 211.185 30.2441 211.073 29.891C210.962 29.5378 210.776 29.2123 210.53 28.9356C210.284 28.659 209.982 28.4376 209.644 28.2858C209.306 28.134 208.939 28.0554 208.569 28.055C207.816 28.0736 207.101 28.3906 206.581 28.9363C206.062 29.482 205.78 30.2118 205.799 30.965C205.818 31.7182 206.135 32.4332 206.68 32.9527C207.226 33.4722 207.956 33.7536 208.709 33.735L208.729 33.715ZM207.169 30.485C207.179 30.1123 207.33 29.7572 207.592 29.4917C207.854 29.2262 208.206 29.0701 208.579 29.055C208.951 29.0629 209.305 29.2177 209.564 29.4856C209.822 29.7535 209.964 30.1127 209.959 30.485H207.169ZM211.979 33.585H213.359L214.689 31.685L216.029 33.585H217.359L215.359 30.845L217.289 28.195H215.959L214.699 29.985L213.449 28.195H212.059L213.979 30.845L211.979 33.605V33.585ZM218.429 33.585H219.679V31.395H222.079V33.585H223.359V28.145H222.109V30.355H219.709V28.145H218.459V33.585H218.429ZM227.479 33.715C228.038 33.7071 228.582 33.5346 229.043 33.2191C229.504 32.9036 229.862 32.4591 230.071 31.9412C230.281 31.4234 230.333 30.8552 230.222 30.3077C230.11 29.7603 229.839 29.258 229.444 28.8636C229.048 28.4692 228.545 28.2003 227.997 28.0906C227.449 27.9809 226.881 28.0351 226.364 28.2466C225.847 28.4581 225.403 28.8175 225.09 29.2796C224.776 29.7418 224.605 30.2863 224.599 30.845C224.596 31.2221 224.669 31.5959 224.813 31.9444C224.958 32.2928 225.17 32.6088 225.439 32.8736C225.707 33.1384 226.026 33.3466 226.377 33.486C226.727 33.6254 227.102 33.693 227.479 33.685V33.715ZM227.479 32.625C227.253 32.62 227.031 32.5695 226.825 32.4765C226.619 32.3835 226.434 32.2499 226.281 32.0838C226.127 31.9176 226.009 31.7222 225.934 31.5094C225.858 31.2965 225.826 31.0706 225.839 30.845C225.824 30.6206 225.855 30.3954 225.931 30.1836C226.006 29.9717 226.125 29.7777 226.279 29.6136C226.433 29.4494 226.618 29.3187 226.825 29.2295C227.031 29.1403 227.254 29.0945 227.479 29.095C227.705 29.0961 227.928 29.1428 228.135 29.2322C228.343 29.3215 228.53 29.4518 228.686 29.6151C228.842 29.7785 228.963 29.9716 229.043 30.1829C229.122 30.3942 229.158 30.6194 229.149 30.845C229.163 31.0699 229.13 31.2953 229.053 31.5072C228.977 31.719 228.857 31.9129 228.703 32.0769C228.548 32.2409 228.361 32.3715 228.154 32.4606C227.947 32.5497 227.724 32.5954 227.499 32.595L227.479 32.625ZM231.609 33.625C232.809 33.625 233.549 33.145 233.549 29.195H235.249V33.565H236.499V28.145H232.389C232.389 32.285 231.959 32.595 231.329 32.595C231.209 32.6053 231.089 32.6053 230.969 32.595L230.869 33.595C231.114 33.6336 231.361 33.657 231.609 33.665V33.625ZM240.609 33.695C241.171 33.6989 241.722 33.536 242.191 33.2268C242.661 32.9176 243.028 32.476 243.246 31.958C243.464 31.44 243.524 30.8689 243.418 30.317C243.311 29.765 243.043 29.2571 242.648 28.8575C242.252 28.458 241.747 28.1847 241.197 28.0724C240.646 27.96 240.074 28.0137 239.554 28.2265C239.034 28.4393 238.588 28.8017 238.274 29.2679C237.96 29.734 237.791 30.2829 237.789 30.845C237.786 31.2221 237.859 31.5959 238.003 31.9444C238.148 32.2928 238.36 32.6088 238.629 32.8736C238.897 33.1384 239.216 33.3466 239.567 33.486C239.917 33.6254 240.292 33.693 240.669 33.685L240.609 33.695ZM240.609 32.605C240.168 32.5766 239.755 32.3765 239.46 32.0474C239.164 31.7184 239.01 31.2867 239.029 30.845C239.014 30.6206 239.045 30.3954 239.121 30.1836C239.196 29.9717 239.315 29.7777 239.469 29.6136C239.623 29.4494 239.808 29.3187 240.015 29.2295C240.221 29.1403 240.444 29.0945 240.669 29.095C240.897 29.0934 241.122 29.1381 241.332 29.2263C241.541 29.3144 241.731 29.4443 241.889 29.6079C242.047 29.7715 242.17 29.9656 242.251 30.1782C242.332 30.3909 242.369 30.6177 242.359 30.845C242.373 31.0699 242.34 31.2953 242.263 31.5072C242.187 31.719 242.067 31.9129 241.913 32.0769C241.758 32.2409 241.571 32.3715 241.364 32.4606C241.157 32.5497 240.934 32.5954 240.709 32.595L240.609 32.605ZM244.779 33.605H246.019V29.215H248.629V28.145H244.859V33.585L244.779 33.605ZM249.619 33.605H250.799L253.379 29.985V33.605H254.589V28.145H253.409C252.549 29.365 251.689 30.575 250.839 31.795V28.145H249.619V33.585V33.605ZM256.149 33.605H257.329L259.919 29.985V33.605H261.119V28.145H259.949C259.079 29.365 258.229 30.575 257.369 31.795V28.145H256.149V33.585V33.605ZM202.359 20.775C202.709 19.9608 202.879 19.0809 202.859 18.195V17.475H204.659V20.775H202.359ZM207.709 21.845H210.529C211.769 21.845 212.529 21.285 212.529 20.375C212.54 20.0507 212.433 19.7334 212.227 19.483C212.02 19.2325 211.729 19.066 211.409 19.015C211.667 18.9246 211.89 18.7551 212.046 18.5307C212.202 18.3063 212.284 18.0384 212.279 17.765C212.279 16.925 211.569 16.405 210.489 16.405H207.699V21.845H207.709ZM208.929 20.845V19.495H210.279C210.949 19.495 211.279 19.765 211.279 20.155C211.279 20.545 210.959 20.855 210.349 20.855L208.929 20.845ZM208.929 18.645V17.365H210.229C210.789 17.365 211.019 17.635 211.019 17.985C211.019 18.335 210.739 18.655 210.209 18.655L208.929 18.645ZM216.279 21.955C216.703 21.9707 217.124 21.8887 217.511 21.7153C217.897 21.5419 218.239 21.2817 218.509 20.955L217.769 20.305C217.585 20.5121 217.358 20.6773 217.105 20.7894C216.851 20.9015 216.576 20.958 216.299 20.955C215.911 20.9694 215.531 20.8344 215.239 20.5777C214.947 20.321 214.765 19.9622 214.729 19.575H218.729C218.729 19.515 218.729 19.305 218.729 19.225C218.771 18.8583 218.736 18.4868 218.624 18.1348C218.513 17.7828 218.328 17.4584 218.083 17.1827C217.838 16.907 217.537 16.6863 217.2 16.535C216.863 16.3838 216.498 16.3054 216.129 16.305C215.766 16.3085 215.408 16.3855 215.076 16.5311C214.743 16.6768 214.444 16.8881 214.195 17.1525C213.947 17.4169 213.754 17.7288 213.63 18.0695C213.505 18.4102 213.45 18.7726 213.469 19.135C213.451 19.5085 213.51 19.8817 213.643 20.2311C213.777 20.5806 213.981 20.8987 214.243 21.1654C214.505 21.4322 214.819 21.6418 215.166 21.7811C215.513 21.9205 215.885 21.9865 216.259 21.975L216.279 21.955ZM214.719 18.735C214.729 18.3606 214.882 18.0041 215.145 17.7384C215.409 17.4726 215.765 17.3176 216.139 17.305C216.511 17.3129 216.865 17.4677 217.124 17.7356C217.382 18.0035 217.524 18.3627 217.519 18.735H214.719ZM220.009 23.485H221.259V20.985C221.458 21.2915 221.731 21.5434 222.052 21.718C222.374 21.8926 222.733 21.9843 223.099 21.985C223.454 21.9766 223.804 21.8958 224.127 21.7475C224.45 21.5992 224.739 21.3865 224.977 21.1225C225.215 20.8585 225.396 20.5487 225.51 20.2121C225.624 19.8755 225.668 19.5192 225.639 19.165C225.669 18.8095 225.626 18.4517 225.513 18.1133C225.4 17.775 225.219 17.4633 224.981 17.1974C224.743 16.9315 224.454 16.717 224.13 16.567C223.807 16.417 223.456 16.3346 223.099 16.325C222.733 16.322 222.372 16.4122 222.05 16.5871C221.728 16.762 221.456 17.016 221.259 17.325V16.415H220.009V23.505V23.485ZM222.809 20.865C222.59 20.8588 222.374 20.8083 222.174 20.7166C221.975 20.6249 221.796 20.4939 221.649 20.3314C221.501 20.1689 221.388 19.9783 221.316 19.771C221.244 19.5637 221.214 19.344 221.229 19.125C221.213 18.9047 221.241 18.6834 221.312 18.4744C221.384 18.2653 221.497 18.0728 221.644 17.9085C221.792 17.7441 221.971 17.6113 222.171 17.5179C222.371 17.4245 222.588 17.3725 222.809 17.365C223.028 17.3723 223.243 17.4241 223.441 17.5172C223.638 17.6103 223.815 17.7428 223.96 17.9066C224.106 18.0704 224.216 18.262 224.284 18.4698C224.353 18.6775 224.378 18.8971 224.359 19.115C224.377 19.3316 224.35 19.5496 224.281 19.7556C224.212 19.9617 224.101 20.1514 223.956 20.3133C223.811 20.4752 223.634 20.6058 223.437 20.6972C223.24 20.7887 223.026 20.8389 222.809 20.845V20.865ZM226.919 21.865H228.159V19.645H230.559V21.845H231.809V16.405H230.559V18.605H228.159V16.405H226.919V21.845V21.865ZM233.359 21.845H235.839C237.119 21.845 237.909 21.155 237.909 20.035C237.909 18.915 236.969 18.315 235.749 18.315H234.599V16.405H233.359V21.845ZM234.599 20.845V19.275H235.659C236.289 19.275 236.659 19.545 236.659 20.035C236.659 20.525 236.289 20.835 235.659 20.835L234.599 20.845ZM238.739 21.845H239.979V16.405H238.759V21.845H238.739ZM244.039 21.965C244.463 21.9807 244.884 21.8987 245.271 21.7253C245.657 21.5519 245.999 21.2917 246.269 20.965L245.539 20.315C245.351 20.5204 245.122 20.6842 244.868 20.7962C244.613 20.9081 244.337 20.9656 244.059 20.965C243.672 20.9793 243.293 20.8439 243.003 20.587C242.713 20.3301 242.532 19.9713 242.499 19.585H246.499C246.499 19.525 246.499 19.315 246.499 19.235C246.54 18.8677 246.503 18.496 246.39 18.1441C246.278 17.7921 246.092 17.4678 245.846 17.1923C245.6 16.9168 245.298 16.6963 244.961 16.5451C244.624 16.394 244.259 16.3155 243.889 16.315C243.526 16.3185 243.168 16.3955 242.836 16.5411C242.503 16.6868 242.204 16.8981 241.955 17.1625C241.707 17.4269 241.514 17.7388 241.39 18.0795C241.265 18.4202 241.21 18.7826 241.229 19.145C241.212 19.5181 241.273 19.8907 241.407 20.2394C241.54 20.5882 241.744 20.9057 242.006 21.1721C242.268 21.4386 242.582 21.6483 242.928 21.7881C243.274 21.928 243.646 21.995 244.019 21.985L244.039 21.965ZM242.489 18.745C242.497 18.3715 242.647 18.0151 242.909 17.7491C243.171 17.4831 243.526 17.3277 243.899 17.315C244.271 17.3229 244.625 17.4777 244.884 17.7456C245.142 18.0135 245.284 18.3727 245.279 18.745H242.489Z" fill="#3D372F"/>
<path fillRule="evenodd" clipRule="evenodd" d="M188.309 6.065H187.079V43.935H188.309V6.065Z" fill="#3D372F"/>
<path fillRule="evenodd" clipRule="evenodd" d="M0 0V50C16.6029 50 33.1592 50 49.7621 50V0C33.1592 0 16.6029 0 0 0ZM12.4173 11.9626H37.3913L34.0428 18.1776H12.4173V11.9626ZM32.3221 21.9626H12.4173V28.1776H32.3221V21.9626ZM12.4173 31.8692H34.0893L37.3913 38.0841H12.4173V31.8692ZM43.5767 6.26168H6.18538V43.785H43.5302V6.26168H43.5767Z" fill="url(#paint0_linear)"/>
<defs>
<linearGradient id="paint0_linear" x1="23.1265" y1="0" x2="23.1265" y2="50" gradientUnits="userSpaceOnUse">
<stop stopColor="#3AAA3E"/>
<stop offset="1" stopColor="#0D774C"/>
</linearGradient>
</defs>
</svg>
