<svg xmlns="http://www.w3.org/2000/svg" viewBox="0 0 244 40" fill="#641a39">
    <path d="M187.148 25.888l3.996-13.231h.135l3.962 13.231h-8.093zm.169-25.211l-15.542 38.646h10.633l2.031-5.584h13.443l1.896 5.584h10.734L195.139.677h-7.822zM0 39.323h9.447v-14.72H20.69v-8.698H9.447V9.34h11.648V.677H0v38.646zM34.3.677h-9.886v38.646H44.83V30.66h-10.53V.677zM234.519.677l.406 24.196-.067.102L219.891.677h-8.533v38.646h9.481l-.271-23.452.102-.067 14.729 23.52H244V.676h-9.481zM162.667 18.545h-4.03V9.34h3.657c3.251 0 6.535.542 6.535 4.535 0 3.925-2.912 4.67-6.162 4.67zm15.643-4.806c0-3.993-1.523-7.681-4.537-10.253-3.217-2.674-7.957-2.81-11.953-2.81h-12.63v38.647h9.447V27.208h4.267c4.334 0 7.923-.406 11.275-3.35 2.777-2.403 4.131-6.6 4.131-10.119zM130.499 20.102h-3.488V9.34h3.624c3.386 0 6.365 1.421 6.365 5.212 0 3.993-2.776 5.55-6.501 5.55zm15.948-6.126c0-4.027-1.557-7.986-4.74-10.558-3.352-2.64-7.822-2.741-11.919-2.741h-12.224v38.646h9.447V26.836h.102l8.939 12.487h11.31L136.865 26.16c6.095-.981 9.582-6.193 9.582-12.183zM94.742 31.337c-6.23 0-10.395-5.449-10.395-11.337S88.512 8.663 94.742 8.663c6.231 0 10.395 5.449 10.395 11.337.034 5.888-4.131 11.337-10.395 11.337zm-30.711 0c-6.23 0-10.396-5.449-10.396-11.337S57.8 8.663 64.031 8.663c6.23 0 10.395 5.449 10.395 11.337.034 5.888-4.131 11.337-10.395 11.337zM94.742 0C88.546 0 83.094 2.538 79.37 6.734 75.68 2.538 70.228 0 64.032 0 52.687 0 43.714 8.562 43.714 20s8.94 20 20.317 20c6.196 0 11.648-2.538 15.338-6.734C83.06 37.428 88.547 40 94.743 40c11.344 0 20.317-8.562 20.317-20s-8.94-20-20.317-20z"></path>
</svg>