<?xml version="1.0" encoding="utf-8"?>
<!-- Generator: Adobe Illustrator 23.0.0, SVG Export Plug-In . SVG Version: 6.00 Build 0)  -->
<svg version="1.1" id="Слой_1" xmlns="http://www.w3.org/2000/svg" xmlns:xlink="http://www.w3.org/1999/xlink" x="0px" y="0px"
	 viewBox="0 0 85 24" style="enable-background:new 0 0 85 24;" xml:space="preserve">
<style type="text/css">
	.st0{fill:#009EE2;}
	.st1{fill:#355377;}
	.st2{fill:#63C2D0;}
	.st3{fill:#373E5B;}
</style>
<g>
	<path class="st0" d="M16.19,10.01c-0.65-0.8-2.61-3.34-4.36-6.45C11.5,2.9,10.4,0.75,9.94,0.74h0C9.49,0.75,8.38,2.9,8.05,3.57
		C6.3,6.68,4.34,9.22,3.69,10.01c-0.12,0.15-0.03,0.32-0.03,0.32s1.51,0,1.63,0c2.41-3.81,4.18-5.28,4.33-5.41
		C9.7,4.84,9.84,4.79,9.94,4.79c0.1,0,0.25,0.04,0.33,0.13c0.14,0.14,1.92,1.6,4.33,5.41c0.12,0,1.63,0,1.63,0
		S16.32,10.16,16.19,10.01"/>
</g>
<g>
	<path class="st0" d="M17.71,15.45c0-2.01-0.16-2.07-0.2-2.45h-1.26c0,0,0.63,1.62,0.16,3.7c-0.44,1.92-2.35,4.33-5.98,4.66
		c-0.12,0.01-0.32,0.02-0.37,0.02c-0.05,0-0.27-0.01-0.4-0.02c-3.62-0.34-5.53-2.73-5.97-4.66C3.23,14.62,3.86,13,3.86,13H2.6
		c-0.04,0.38-0.19,0.44-0.19,2.45c0,3.37,3,6.58,7.16,7.02c0,0,0.34,0.02,0.49,0.02c0.15,0,0.49-0.02,0.49-0.02
		C14.7,22.02,17.71,18.82,17.71,15.45"/>
</g>
<g>
	<path class="st1" d="M18.55,10.36v0.53h-3.37v0h-0.6c-1.71,0-1.55,1.63-1.55,1.87v4.3c0,0-0.06,0.44-0.49,0.44
		c-0.43,0-0.46-0.49-0.46-0.49v-4.27c0-2.01-1.68-1.9-2.06-1.9c-0.38,0-2.06-0.1-2.06,1.9v4.27c0,0-0.03,0.49-0.46,0.49
		c-0.43,0-0.49-0.44-0.49-0.44v-4.3c0-0.24,0.17-1.87-1.55-1.87H4.66l0,0h-3.2v-0.53H1.02v2.6h0.44v-0.54h3.42
		c0,0,0.45-0.09,0.45,0.47v4.53c0,0,0,1.57,2.14,1.57c2.14,0,2.06-1.63,2.06-1.63v-4.63c0,0-0.02-0.41,0.49-0.44
		c0.52,0.02,0.49,0.44,0.49,0.44v4.63c0,0-0.08,1.63,2.06,1.63c2.14,0,2.14-1.57,2.14-1.57v-4.53c0-0.56,0.45-0.47,0.45-0.47h3.37
		v0.54H19v-2.6H18.55z"/>
</g>
<g>
	<path class="st2" d="M6.66,19.77c0.26,0.14,0.52,0.27,0.79,0.37c0.27,0.11,0.55,0.2,0.83,0.27c0.56,0.14,1.13,0.21,1.7,0.22
		c0.57,0,1.14-0.07,1.7-0.21l0.21-0.06l0.21-0.07c0.07-0.02,0.14-0.05,0.21-0.07c0.07-0.02,0.13-0.05,0.2-0.08
		c0.27-0.11,0.53-0.23,0.79-0.38l0.02,0.03c-0.21,0.22-0.46,0.39-0.72,0.55c-0.26,0.15-0.54,0.28-0.82,0.38
		c-0.07,0.03-0.14,0.05-0.22,0.07c-0.07,0.02-0.15,0.05-0.22,0.06l-0.22,0.05l-0.23,0.04l-0.11,0.02l-0.11,0.01l-0.23,0.02
		c-0.08,0.01-0.15,0.01-0.23,0.01c-0.08,0-0.15,0.01-0.23,0.01c-0.3-0.01-0.61-0.03-0.91-0.08c-0.3-0.05-0.6-0.13-0.88-0.23
		c-0.29-0.1-0.56-0.23-0.82-0.38c-0.26-0.15-0.51-0.32-0.73-0.53L6.66,19.77z"/>
</g>
<g>
	<path class="st2" d="M10.08,6.4L10.08,6.4c-0.2,0-1.38,1.18-2.93,3.56c0,0,2.32-2.85,2.93-3c0,0,0,0,0.01,0c0,0,0,0,0.01,0
		c0.61,0.15,2.93,3,2.93,3C11.46,7.58,10.28,6.4,10.08,6.4"/>
</g>
<g>
	<polygon class="st3" points="24.24,9.27 26.41,9.27 27.11,15.3 29.22,9.27 31.43,9.27 32,15.13 34.13,9.19 36.38,9.19 32.5,18.86 
		30.54,18.9 29.89,12.46 27.64,18.8 25.64,18.8 	"/>
</g>
<g>
	<path class="st3" d="M42.75,12.16l-0.15,1.65h0.6c0,0-0.27,2.8-0.29,3.23c-0.02,0.43-0.15,2.01,1.62,1.98c0.98,0,1.7-0.48,1.7-0.48
		l-0.29-1.5c0,0-0.52,0.29-0.81,0.14c-0.29-0.15-0.24-0.61-0.2-1c0.04-0.39,0.29-2.31,0.29-2.31l1.5-0.01l0.17-1.64l-1.36-0.04
		l0.2-2.31l-2.02,0.37l-0.18,1.89L42.75,12.16z"/>
</g>
<g>
	<path class="st3" d="M53.42,18.87h2.14c0,0-0.05-1.93,0.42-3.44c0.47-1.51,1.85-1.12,1.85-1.12l0.33-2.32c0,0-1.38,0.01-1.92,1.08
		c-0.05,0.09,0.08-0.86,0.08-0.86h-2.09L53.42,18.87z"/>
</g>
<g>
	<path class="st3" d="M50.04,13.81c0.93-0.37,1.12,0.39,0.84,0.79c-0.76,0.91-1.93,0.6-1.93,0.6S49.11,14.18,50.04,13.81
		 M49.93,17.36c-0.76-0.04-0.98-0.56-1-0.91c0,0,1.88-0.03,3.02-0.91s0.98-2.05,0.65-2.61c-0.33-0.56-1.52-1.22-3.06-0.71
		c-1.53,0.51-2.41,1.8-2.53,3.11c-0.11,1.31-0.11,3.4,2.32,3.7c2.44,0.3,3.25-1.4,3.25-1.4l-1.46-0.95
		C51.12,16.68,50.69,17.4,49.93,17.36"/>
</g>
<g>
	<path class="st0" d="M63.42,12.46c-0.09,0.88-0.61,1.23-0.99,1.36c-0.38,0.13-1.33,0.05-1.33,0.05l0.27-2.78
		c0,0,1.19-0.11,1.51,0.05C63.2,11.31,63.51,11.59,63.42,12.46 M65.11,10.04c-0.15-0.25-0.67-0.82-1.92-0.82h-3.62l-1.23,9.65h2.12
		l0.37-3.2c0,0,1.26-0.03,1.76-0.03c0.51,0,2.57-0.46,2.83-2.52C65.68,11.06,65.26,10.29,65.11,10.04"/>
</g>
<g>
	<path class="st0" d="M71.43,12.4c-0.09,0.68-0.58,1.36-0.96,1.36c-0.38,0-1.45,0.01-1.45,0.01l0.31-2.68h0.05
		c0,0,0.89-0.05,1.32,0.04C71.13,11.22,71.52,11.72,71.43,12.4 M73.51,13.03c0.19-1.81,0.02-3.11-1.42-3.65
		c-0.56-0.25-4.67-0.14-4.67-0.14l-1.15,9.67h2.28l0.22-3.22l0.91-0.01l1.26,3.23l2.4-0.05l-1.67-3.36l0.09-0.25
		C71.75,15.24,73.32,14.85,73.51,13.03"/>
</g>
<g>
	<path class="st0" d="M80.94,14.32c-0.58,2.87-2.4,2.71-2.97,2.71c0,0-1.98,0.15-1.5-2.84c0.48-2.99,2.03-3.1,2.74-3.1
		C79.93,11.09,81.53,11.45,80.94,14.32 M81.02,9.39c-1.99-0.74-4.39-0.19-5.67,1.71c-1.28,1.9-1.5,4.93-0.39,6.42
		c1.1,1.48,2.97,1.5,2.97,1.5c0.81,0,3.8-0.2,4.85-3.31C83.81,12.6,83.01,10.13,81.02,9.39"/>
</g>
<g>
	<path class="st3" d="M39.56,15.33c-0.08,0.22-0.19,0.45-0.33,0.71c-0.58,1.05-1.03,1.26-1.41,1.21c-0.36-0.05-1.03-0.56-0.61-1.99
		c0.42-1.43,1.32-1.55,1.99-1.26c0.25,0.11,0.4,0.27,0.45,0.49L39.56,15.33z M39.92,12.16l-0.05,0.48c0,0-0.49-0.53-1.64-0.56
		c-1.23-0.03-3.31,1.14-3.31,3.67s0.95,3.01,2.24,3.24c1.35,0.24,2.11-1.18,2.11-1.18l-0.13,1.05h1.99l0.75-6.66L39.92,12.16z"/>
</g>
</svg>
