<svg width="28" height="27" viewBox="0 0 28 27" fill="none" xmlns="http://www.w3.org/2000/svg">
<path d="M4.27653 6.47274L11.5779 11.7495C13.0268 12.7966 14.9732 12.7966 16.4221 11.7495L23.7235 6.47274M2.48681 17.5266C1.83773 14.8824 1.83773 12.1176 2.48681 9.4734C3.33648 6.01201 6.0497 3.33571 9.49123 2.56429L10.0645 2.43578C12.6568 1.85474 15.3432 1.85474 17.9355 2.43578L18.5088 2.56429C21.9503 3.33571 24.6635 6.01202 25.5132 9.47341C26.1623 12.1176 26.1623 14.8824 25.5132 17.5266C24.6635 20.988 21.9503 23.6643 18.5088 24.4357L17.9355 24.5642C15.3432 25.1453 12.6568 25.1453 10.0645 24.5642L9.49123 24.4357C6.0497 23.6643 3.33648 20.988 2.48681 17.5266Z" stroke="#44217B" stroke-width="3" stroke-linecap="round"/>
</svg>
