<svg width="42" height="40" viewBox="0 0 42 40" fill="none" xmlns="http://www.w3.org/2000/svg">
<path fill-rule="evenodd" clip-rule="evenodd" d="M6.52158 0.261035C6.87009 0.609279 6.87032 1.17412 6.52208 1.52262L2.39439 5.65351L6.5147 9.77705C6.86295 10.1256 6.86272 10.6904 6.5142 11.0386C6.1657 11.3868 5.60086 11.3866 5.25261 11.0381L0.502242 6.28403C0.154201 5.93577 0.154201 5.37126 0.502242 5.02299L5.25999 0.261535C5.60823 -0.0869819 6.17307 -0.087208 6.52158 0.261035Z" fill="#44217B"/>
<path fill-rule="evenodd" clip-rule="evenodd" d="M19.5411 0.261035C19.8896 -0.087208 20.4545 -0.0869819 20.8026 0.261535L25.553 5.01562C25.9012 5.364 25.9012 5.92839 25.553 6.27678L20.7953 11.0381C20.4471 11.3866 19.8822 11.3868 19.5337 11.0386C19.1852 10.6904 19.185 10.1256 19.5333 9.77705L23.661 5.64614L19.5406 1.52262C19.1924 1.17411 19.1926 0.609279 19.5411 0.261035Z" fill="#44217B"/>
<path fill-rule="evenodd" clip-rule="evenodd" d="M0.241211 5.64989C0.241211 5.15723 0.640612 4.75781 1.13329 4.75781H24.922C25.4147 4.75781 25.8141 5.15723 25.8141 5.64989C25.8141 6.14255 25.4147 6.54197 24.922 6.54197H1.13329C0.640612 6.54197 0.241211 6.14255 0.241211 5.64989Z" fill="#44217B"/>
<path fill-rule="evenodd" clip-rule="evenodd" d="M30.7015 33.6942C31.0497 33.3457 31.6145 33.3455 31.9631 33.6937L36.0939 37.8214L40.2175 33.7011C40.566 33.3529 41.1309 33.3531 41.479 33.7016C41.8273 34.0501 41.827 34.615 41.4785 34.9632L36.7245 39.7136C36.3762 40.0616 35.8117 40.0616 35.4634 39.7136L30.702 34.9558C30.3534 34.6076 30.3532 34.0427 30.7015 33.6942Z" fill="#44217B"/>
<path fill-rule="evenodd" clip-rule="evenodd" d="M30.7015 20.6745C30.3532 20.326 30.3534 19.7611 30.702 19.4129L35.456 14.6626C35.8044 14.3144 36.3688 14.3144 36.7172 14.6626L41.4785 19.4203C41.827 19.7685 41.8273 20.3333 41.479 20.6818C41.1309 21.0303 40.566 21.0306 40.2175 20.6823L36.0866 16.5546L31.9631 20.6749C31.6145 21.0232 31.0497 21.023 30.7015 20.6745Z" fill="#44217B"/>
<path fill-rule="evenodd" clip-rule="evenodd" d="M36.0901 39.9746C35.5974 39.9746 35.198 39.5752 35.198 39.0825V15.2938C35.198 14.8011 35.5974 14.4017 36.0901 14.4017C36.5827 14.4017 36.9822 14.8011 36.9822 15.2938V39.0825C36.9822 39.5752 36.5827 39.9746 36.0901 39.9746Z" fill="#44217B"/>
<rect x="1" y="15.4023" width="23.5975" height="23.5975" stroke="#44217B" stroke-width="2"/>
</svg>
