<svg width="49" height="58" viewBox="0 0 49 58" fill="none" xmlns="http://www.w3.org/2000/svg">
<path d="M24.5 0C11.025 0 0 10.44 0 23.2C0 38.86 21.4375 56.55 22.3563 57.42C22.9688 57.71 23.8875 58 24.5 58C25.1125 58 26.0312 57.71 26.6437 57.42C27.5625 56.55 49 38.86 49 23.2C49 10.44 37.975 0 24.5 0ZM24.5 51.33C18.0688 45.53 6.125 33.06 6.125 23.2C6.125 13.63 14.3938 5.8 24.5 5.8C34.6063 5.8 42.875 13.63 42.875 23.2C42.875 32.77 30.9312 45.53 24.5 51.33ZM24.5 11.6C17.7625 11.6 12.25 16.82 12.25 23.2C12.25 29.58 17.7625 34.8 24.5 34.8C31.2375 34.8 36.75 29.58 36.75 23.2C36.75 16.82 31.2375 11.6 24.5 11.6ZM24.5 29C21.1313 29 18.375 26.39 18.375 23.2C18.375 20.01 21.1313 17.4 24.5 17.4C27.8687 17.4 30.625 20.01 30.625 23.2C30.625 26.39 27.8687 29 24.5 29Z" fill="#44217B"/>
</svg>
