<svg width="45" height="45" viewBox="0 0 45 45" fill="none" xmlns="http://www.w3.org/2000/svg">
<path fill-rule="evenodd" clip-rule="evenodd" d="M22.253 4.41015C14.1628 4.41015 7.48799 10.4674 6.51561 18.294C6.82685 18.2861 7.15197 18.2871 7.49295 18.2871H7.84879C8.31367 18.2851 8.8856 18.2831 9.40202 18.4229C10.7699 18.7886 11.8384 19.8572 12.2052 21.226C12.3439 21.7424 12.3419 22.3134 12.341 22.7782V31.6377C12.3419 32.1026 12.3439 32.6735 12.2052 33.1899C11.8384 34.5588 10.7699 35.6273 9.40202 35.993C8.8856 36.1328 8.31367 36.1308 7.84879 36.1288H7.49295C6.48687 36.1298 5.61857 36.1308 4.85336 35.9266C2.80155 35.3765 1.19877 33.7727 0.648648 31.7209C0.443467 30.9567 0.444459 30.0884 0.44545 29.0823V25.3336C0.444459 24.3275 0.443467 23.4592 0.648648 22.695C0.95394 21.5561 1.58336 20.556 2.43381 19.7957C2.68558 9.06586 11.4617 0.445312 22.253 0.445312C33.0433 0.445312 41.8195 9.06586 42.0713 19.7957C42.9227 20.556 43.5512 21.5561 43.8564 22.695C44.0616 23.4592 44.0606 24.3275 44.0596 25.3336V29.0823C44.0606 30.0884 44.0616 30.9567 43.8564 31.7209C43.3063 33.7727 41.7035 35.3765 39.6517 35.9266C39.1254 36.0664 38.5495 36.11 37.9151 36.1239C36.9983 40.6507 32.9978 44.0585 28.2003 44.0585H23.0688C21.5235 44.0585 20.2706 42.8056 20.2706 41.2603V41.0849C20.2706 39.4425 21.6018 38.1113 23.2443 38.1113H25.2267C26.5212 38.1113 27.6224 38.9389 28.0308 40.0937H28.2003C31.0183 40.0937 33.3784 38.1341 33.9919 35.5034C33.1712 34.9781 32.5586 34.1593 32.2999 33.1899C32.1612 32.6735 32.1632 32.1026 32.1641 31.6377L32.1651 31.5029V22.9131L32.1641 22.7782C32.1632 22.3134 32.1612 21.7424 32.2999 21.226C32.6667 19.8572 33.7352 18.7886 35.1041 18.4229C35.6205 18.2831 36.1914 18.2851 36.6563 18.2871H37.0121C37.3531 18.2871 37.6792 18.2861 37.9905 18.294C37.0181 10.4674 30.3423 4.41015 22.253 4.41015ZM7.71498 22.2519C8.04009 22.2519 8.21851 22.2529 8.34737 22.2589L8.36818 22.2598L8.36918 22.2797C8.37512 22.4095 8.37611 22.5879 8.37611 22.9131V31.5029C8.37611 31.828 8.37512 32.0064 8.36918 32.1363L8.36818 32.1561L8.34737 32.1571C8.21851 32.164 8.04009 32.164 7.71498 32.164C6.35801 32.164 6.06858 32.1462 5.88025 32.0966C5.19632 31.9132 4.66205 31.379 4.47769 30.695C4.42813 30.5057 4.41128 30.2163 4.41128 28.8603V25.5556C4.41128 24.1996 4.42813 23.9102 4.47769 23.7209C4.66205 23.037 5.19632 22.5027 5.88025 22.3193C6.06858 22.2698 6.35801 22.2519 7.71498 22.2519ZM36.7901 22.2519C36.465 22.2519 36.2876 22.2529 36.1577 22.2589L36.1369 22.2598L36.1359 22.2797C36.13 22.4095 36.13 22.5879 36.13 22.9131V31.5029C36.13 31.828 36.13 32.0064 36.1359 32.1363L36.1369 32.1561L36.1577 32.1571C36.2876 32.164 36.465 32.164 36.7901 32.164C38.1471 32.164 38.4365 32.1462 38.6258 32.0966C39.3088 31.9132 39.843 31.379 40.0274 30.695C40.077 30.5057 40.0948 30.2163 40.0948 28.8603V25.5556C40.0948 24.1996 40.077 23.9102 40.0274 23.7209C39.843 23.037 39.3088 22.5027 38.6258 22.3193C38.4365 22.2698 38.1471 22.2519 36.7901 22.2519Z" fill="white"/>
</svg>
