<svg width="34" height="34" viewBox="0 0 34 34" fill="none" xmlns="http://www.w3.org/2000/svg">
<path d="M2.98029 0H30.7966C32.4426 0 33.777 1.33432 33.777 2.98029V30.7966C33.777 32.4426 32.4426 33.7769 30.7967 33.7769H2.98029C1.33432 33.777 0 32.4426 0 30.7967V2.98029C0 1.33432 1.33432 0 2.98029 0ZM21.8557 10.9278H17.8819C17.3333 10.9278 16.8885 10.4831 16.8885 9.93438C16.8885 9.38571 17.3333 8.94093 17.8819 8.94093H31.7901V2.98029C31.7901 2.43161 31.3453 1.98684 30.7967 1.98684H11.9213V9.93438C11.9213 10.4831 11.4765 10.9278 10.9278 10.9278C10.3792 10.9278 9.93438 10.4831 9.93438 9.93438V1.9869H2.98029C2.43161 1.9869 1.98684 2.43168 1.98684 2.98035V16.8885H9.93438V15.895C9.93438 15.3463 10.3792 14.9016 10.9278 14.9016C11.4765 14.9016 11.9213 15.3463 11.9213 15.895V19.8688C11.9213 20.4174 11.4765 20.8622 10.9278 20.8622C10.3792 20.8622 9.93438 20.4174 9.93438 19.8688V18.8753H1.9869V30.7966C1.9869 31.3453 2.43168 31.7901 2.98035 31.7901H9.93445V25.8294C9.93445 25.2807 10.3792 24.836 10.9279 24.836C11.4766 24.836 11.9214 25.2807 11.9214 25.8294V31.7901H21.8557V26.8229H17.882C17.3333 26.8229 16.8885 26.3781 16.8885 25.8294C16.8885 25.2807 17.3333 24.836 17.882 24.836H21.8557V21.8557C21.8557 21.307 22.3005 20.8622 22.8492 20.8622C23.3979 20.8622 23.8426 21.307 23.8426 21.8557V31.7901H30.7967C31.3454 31.7901 31.7902 31.3453 31.7902 30.7966V10.9278H23.8426V15.895C23.8426 16.4437 23.3978 16.8885 22.8491 16.8885C22.3004 16.8885 21.8557 16.4437 21.8557 15.895V10.9278Z" fill="#44217B"/>
</svg>
