<svg width="35" height="34" viewBox="0 0 35 34" fill="none" xmlns="http://www.w3.org/2000/svg">
<path d="M29.8529 5.49767H26.4765L25.3297 2.08864C25.1984 1.699 24.989 1.33956 24.714 1.03181C24.439 0.72406 24.1042 0.474318 23.7294 0.297516C23.3546 0.120715 22.9476 0.0204871 22.5328 0.00282572C22.1179 -0.0148357 21.7038 0.0504326 21.315 0.194727L7.01853 5.48953H5.14706C3.78197 5.48953 2.4728 6.02592 1.50754 6.98069C0.542278 7.93547 0 9.23043 0 10.5807V28.9088C0 30.2591 0.542278 31.5541 1.50754 32.5088C2.4728 33.4636 3.78197 34 5.14706 34H29.8529C31.218 34 32.5272 33.4636 33.4925 32.5088C34.4577 31.5541 35 30.2591 35 28.9088V10.5807C34.9978 9.23184 34.4546 7.93897 33.4896 6.98596C32.5245 6.03294 31.2166 5.49767 29.8529 5.49767ZM32.9412 23.8258H25.7353C24.9162 23.8258 24.1307 23.504 23.5516 22.9311C22.9724 22.3583 22.6471 21.5813 22.6471 20.7711C22.6471 19.961 22.9724 19.184 23.5516 18.6111C24.1307 18.0383 24.9162 17.7164 25.7353 17.7164H32.9412V23.8258ZM22.0294 2.10086C22.159 2.05276 22.2971 2.031 22.4353 2.03689C22.5736 2.04278 22.7093 2.07618 22.8342 2.13512C22.9591 2.19405 23.0708 2.2773 23.1624 2.37988C23.2541 2.48247 23.3239 2.60228 23.3676 2.73216L24.3003 5.49767H12.8841L22.0294 2.10086ZM29.8529 31.9717H5.14706C4.32801 31.9717 3.5425 31.6498 2.96335 31.077C2.38419 30.5041 2.05882 29.7271 2.05882 28.917V10.5888C2.05882 9.77867 2.38419 9.0017 2.96335 8.42883C3.5425 7.85597 4.32801 7.53414 5.14706 7.53414H29.8529C30.672 7.53414 31.4575 7.85597 32.0367 8.42883C32.6158 9.0017 32.9412 9.77867 32.9412 10.5888V15.68H25.7353C24.3702 15.68 23.061 16.2164 22.0958 17.1712C21.1305 18.1259 20.5882 19.4209 20.5882 20.7711C20.5882 22.1214 21.1305 23.4164 22.0958 24.3711C23.061 25.3259 24.3702 25.8623 25.7353 25.8623H32.9412V28.917C32.9412 29.7271 32.6158 30.5041 32.0367 31.077C31.4575 31.6498 30.672 31.9717 29.8529 31.9717ZM25.7353 19.7529H27.7941C28.0671 19.7529 28.329 19.8602 28.522 20.0511C28.7151 20.2421 28.8235 20.5011 28.8235 20.7711C28.8235 21.0412 28.7151 21.3002 28.522 21.4911C28.329 21.6821 28.0671 21.7894 27.7941 21.7894H25.7353C25.4623 21.7894 25.2004 21.6821 25.0074 21.4911C24.8143 21.3002 24.7059 21.0412 24.7059 20.7711C24.7059 20.5011 24.8143 20.2421 25.0074 20.0511C25.2004 19.8602 25.4623 19.7529 25.7353 19.7529Z" fill="#44217B"/>
</svg>
